<svg fill="none" height="84" viewBox="0 0 210 84" width="210" xmlns="http://www.w3.org/2000/svg"><clipPath id="a"><path d="M0 0h210v84H0z"/></clipPath><g clip-path="url(#a)"><path d="M9.034 25.796C3.448 25.796 0 21.83 0 16.835s3.448-8.96 9.034-8.96c5.585 0 9.034 3.963 9.034 8.96 0 4.996-3.45 8.96-9.034 8.96zm37.773-13.247c-3.39 0-6.175.612-7.55 1.867-.934.85-1.364 1.988-1.364 3.65v33.882c0 5.633-.905 8.685-2.895 10.826-1.75 1.88-4.5 2.9-7.526 2.9-2.954 0-5.573-.985-7.132-2.633-1.628-1.72-2.39-4.107-2.39-7.636V33.34c0-.964-.36-1.394-1.427-1.394H1.524c-1.056 0-1.404.415-1.404 1.4v19.947c0 7.964 2.053 12.51 5.637 16.095 4.657 4.658 12.618 6.737 20.182 6.737 7.553 0 15.429-2.677 20.084-6.978C50.59 73.31 58.89 76.12 68.052 76.12c12.104 0 21.002-5.004 26.195-13.514 2.306 3.572 4.01 6.228 5.646 8.648 2.411 3.561 4.605 4.87 9.513 4.87 4.65 0 7.442-1.116 9.956-4.963 6.596-10.086 12.217-22.012 16.269-32.986.507-1.373.868-2.374.868-3.001 0-.643-.418-1.148-1.417-1.464a666.813 666.813 0 0 0-4.872-1.502c-2.167-.66-2.955-.854-3.424-.854-.876 0-1.354.49-1.659 1.503-3.039 10.111-7.661 21.473-11.786 28.53-1.351-2.577-3.849-7.06-6.167-11.104-3.584-6.256-7.125-12.567-8.903-15.469-1.797-2.931-3-3.712-5.364-3.712-4.874 0-12.094 4.374-12.094 8.452 0 1.384.385 2.422 1.82 4.873 1.634 2.789 2.455 5.051 2.455 7.834 0 6.933-5.179 13.214-15.18 13.214-4.747 0-8.411-1.347-10.798-3.797-2.277-2.338-3.386-5.482-3.386-10.733v-8.809c1.668.714 3.716 1.076 6.184 1.076h7.92c1.067 0 1.44-.43 1.44-1.394v-8.481c0-.965-.373-1.395-1.44-1.395H55.723V18.066c0-1.662-.433-2.8-1.366-3.651-1.375-1.254-4.21-1.866-7.551-1.866zm162.356 12.074c0 14.72-6.987 23.196-30.672 39.6-.935.648-.691 1.502.045 1.502h27.745c1.968 0 2.992.754 3.253 2.647.315 2.292.466 4.142.466 6.53 0 2.44-.238 4.483-.631 6.34-.416 1.975-1.286 2.757-3.186 2.757H151.94c-2.397 0-3.41-.777-4.297-2.835l-1.845-4.753c-.638-1.845-1.094-3.327-1.094-4.979 0-2.736 1.473-4.106 3.376-5.465 28.604-20.403 38.541-27.779 38.541-38.74 0-5.675-4.231-9.667-11.556-9.667-7.27 0-13.839 2.947-20.824 8.455-1.859 1.465-3.485 1.26-4.477-.59-1.381-2.58-3.306-7.012-4.485-11.202-.696-2.471-.223-4.35 1.347-5.446 1.924-1.346 6.358-3.556 8.63-4.455 6.313-2.499 14.224-4.323 23.229-4.323 17.202 0 30.678 9.195 30.678 24.624z" fill="#000"/></g></svg>
