<svg fill="none" height="145" viewBox="0 0 191 145" width="191" xmlns="http://www.w3.org/2000/svg"><path clip-rule="evenodd" d="M155.161 127.713v-23.027h-9.541v23.027zm-50.512-9.561v-13.117h-9.248v10.027c0 2.914-.117 3.731-.292 4.489-.644 2.099-2.869 3.03-5.151 3.03-3.16 0-4.623-1.224-5.21-3.147-.174-.64-.233-1.34-.291-2.039-.059-.758 0-1.575 0-2.448v-9.911h-9.365v13.175c0 2.974.996 5.189 2.633 6.704 2.81 2.74 7.551 3.556 11.94 3.556 5.327 0 9.424-.757 12.35-3.614 1.523-1.458 2.634-3.382 2.634-6.705zm-45.42-1.633a7.866 7.866 0 0 0-1.404-.115H47.29c-.527 0-1.113.058-1.405.115.176-.175.527-.524.878-.991l4.74-7.812c.645-1.048.937-1.748 1.054-2.039.117.291.409.991 1.053 2.099l4.859 7.871c.234.348.585.697.76.872zm17.677 11.194L55.835 96.235H44.012l3.102 3.672c.058.058.176.115.292.176-.117.058-.234.115-.292.173l-18.378 27.457h10.652l2.869-4.723c.116-.233.175-.467.175-.582.117 0 .41.115.702.115h19.023c.292 0 .526-.058.643-.115a.785.785 0 0 0 .117.467l2.985 4.838zm66.14-11.833c0-2.566-1.054-5.54-4.331-9.679l-7.903-9.967h-11.003l6.262 6.995c1.054 1.166 2.4 2.214 2.4 2.214-1.521-.875-3.452-1.223-4.974-1.223-3.629 0-7.318.758-10.594 2.566-3.513 1.921-5.854 5.128-5.854 9.385 0 3.264 1.463 5.771 3.336 7.695 4.215 4.196 11.881 4.604 14.691 4.604 4.155 0 10.652-.932 14.341-4.255 2.166-1.983 3.629-4.721 3.629-8.335zm-9.131.291c0 2.39-1.582 4.196-3.571 5.187-1.639.875-3.572 1.108-5.268 1.108s-3.687-.35-5.326-1.166c-1.99-.991-3.513-2.915-3.513-5.014 0-2.505 1.932-4.489 4.216-5.48 1.405-.639 3.102-.873 4.447-.873 1.289 0 3.162.173 4.625.758 2.635 1.106 4.39 3.205 4.39 5.48zm18.215-94.986a30.382 30.382 0 0 0-18.877 6.533 30.379 30.379 0 0 0-18.878-6.533 30.386 30.386 0 0 0-18.876 6.533 30.373 30.373 0 0 0-18.876-6.533 30.386 30.386 0 0 0-18.877 6.533 30.384 30.384 0 0 0-18.876-6.533c-16.817 0-30.444 13.572-30.444 30.322 0 16.747 13.626 30.321 30.444 30.321a30.387 30.387 0 0 0 18.876-6.532 30.384 30.384 0 0 0 18.877 6.532 30.375 30.375 0 0 0 18.876-6.532 30.387 30.387 0 0 0 18.876 6.532 30.38 30.38 0 0 0 18.878-6.532 30.38 30.38 0 0 0 18.877 6.532c16.817 0 30.443-13.573 30.443-30.321 0-16.749-13.626-30.321-30.443-30.321zM52.765 70.343c-3.88 2.818-8.726 4.538-13.895 4.538-12.973 0-23.47-10.454-23.47-23.374S25.896 28.13 38.87 28.13c5.17 0 10.013 1.721 13.895 4.54a30.066 30.066 0 0 0-6.586 18.836 30.29 30.29 0 0 0 6.586 18.836zm4.982-4.948a23.172 23.172 0 0 1-4.593-13.888 23.132 23.132 0 0 1 4.593-13.889 23.142 23.142 0 0 1 4.593 13.889 23.178 23.178 0 0 1-4.593 13.888zm32.772 4.948a23.434 23.434 0 0 1-13.912 4.531 23.362 23.362 0 0 1-13.88-4.531 30.28 30.28 0 0 0 6.586-18.835 30.066 30.066 0 0 0-6.586-18.835 23.354 23.354 0 0 1 13.88-4.533 23.44 23.44 0 0 1 13.912 4.533 30.066 30.066 0 0 0-6.586 18.835 30.283 30.283 0 0 0 6.586 18.835zm4.98-4.948a23.173 23.173 0 0 1-4.593-13.888A23.14 23.14 0 0 1 95.5 37.618a23.137 23.137 0 0 1 4.594 13.889A23.175 23.175 0 0 1 95.5 65.395zm32.773 4.948c-3.894 2.856-8.705 4.531-13.911 4.531a23.36 23.36 0 0 1-13.881-4.531 30.278 30.278 0 0 0 6.586-18.835 30.065 30.065 0 0 0-6.586-18.835 23.353 23.353 0 0 1 13.881-4.533 23.44 23.44 0 0 1 13.911 4.533 30.072 30.072 0 0 0-6.586 18.835 30.291 30.291 0 0 0 6.586 18.835zm4.982-4.948a23.17 23.17 0 0 1-4.593-13.888 23.126 23.126 0 0 1 4.593-13.889 23.14 23.14 0 0 1 4.593 13.889 23.184 23.184 0 0 1-4.593 13.888zm18.876 9.486c-5.171 0-10.017-1.72-13.895-4.538a30.291 30.291 0 0 0 6.586-18.835 30.077 30.077 0 0 0-6.586-18.835c3.882-2.819 8.725-4.54 13.895-4.54 12.971 0 23.471 10.454 23.471 23.375 0 12.918-10.5 23.373-23.471 23.373z" fill="#000" fill-rule="evenodd"/></svg>
