<svg fill="none" height="71" viewBox="0 0 256 71" width="256" xmlns="http://www.w3.org/2000/svg"><clipPath id="a"><path d="M0 0h256v71H0z"/></clipPath><mask id="b" height="24" maskUnits="userSpaceOnUse" width="27" x="219" y="1"><path d="M219.736 1.083h25.282v23.724h-25.282z" fill="#fff"/></mask><mask id="c" height="55" maskUnits="userSpaceOnUse" width="212" x="0" y="15"><path d="M0 15.676h211.095V69.01H0z" fill="#fff"/></mask><g clip-path="url(#a)"><g mask="url(#b)"><path clip-rule="evenodd" d="M230.766 8.997c-.675 4.248-2.118 8.35-5.292 11.796-1.513 1.635-3.69 3.357-5.738 4.014h8.688c2.66 0 7.863-1.357 10.614-4.316 4.988-5.423 4.91-11.368 5.98-19.409h-7.483c-1.892 0-5.533.101-6.769 7.915z" fill="#000" fill-rule="evenodd" opacity=".9"/></g><path clip-rule="evenodd" d="M156.03 55.396c1.328-5.146 3.06-10.43 5.051-15.233 2.153 4.31 3.892 9.685 5.385 15.233zm12.18-24.693h-11.858c-4.937 8.843-8.898 22.184-12.208 38.378h9.182a93.266 93.266 0 0 1 1.287-7.241h13.351c.551 2.515 1.032 5.02 1.436 7.241h11.261c-3.057-13.963-7.918-29.545-12.451-38.378z" fill="#000" fill-rule="evenodd"/><g mask="url(#c)"><path clip-rule="evenodd" d="M199.91 23.645H41.914v44.668c-.807.48-3.158.697-5.003.697-6.229 0-8.481-2.01-11.796-7.98L9.128 32.665V68.22H0V16.402c.81-.477 3.146-.726 4.998-.726 6.226 0 8.48 2.02 11.8 7.968l16.06 28.329V16.49h178.237c0 5.034-8.595 7.155-11.185 7.155z" fill="#000" fill-rule="evenodd"/></g><path d="M233.711 63.539c-3.839 0-6.16-.338-7.355-2.173-1.043-1.588-1.114-4.29-1.114-7.377H239.7v-7.457h-14.458v-8.355h16.775v-7.474h-26.762v23.45c0 5.532.874 10.478 3.105 12.838 2.892 2.919 7.837 4.01 14.383 4.01 3.436 0 7.116-.588 9.419-1.76v-6.967a28.811 28.811 0 0 1-8.451 1.265zM59.14 61.366c-1.039-1.59-1.12-4.29-1.12-7.377h14.469V46.53h-14.47v-8.354h16.782v-7.474H48.048v23.45c0 5.532.863 10.478 3.103 12.823C54.031 69.91 58.978 71 65.533 71c3.438 0 7.103-.589 9.422-1.76v-6.966a28.936 28.936 0 0 1-8.467 1.265c-3.822 0-6.146-.34-7.347-2.173zM90.93 41.93c-1.224-.825-.973-4.078 0-4.807.979-.746 2.44-.974 5.13-.974 4.075 0 7.481.726 10.995 1.785v-6.947c-1.633-.985-5.71-2.203-11.477-2.203-4.649 0-9.04.65-12.306 3.752-3.008 2.866-3.654 12.75-.315 16.26 3.417 3.603 12.529 4.91 15.794 7.126 1.218.81.889 4.08 0 4.805-.817.676-2.445 1.072-5.134 1.072-4.07 0-8.06-.814-11.803-1.88v7.039c1.878 1.057 5.776 2.123 11.963 2.123 4.234 0 9.36-.818 12.374-3.107 3.911-3.024 4.722-12.514.98-16.604-3.251-3.604-12.948-5.234-16.202-7.44zm34.593 17.811c-1.122-1.723-1.439-5.245-1.439-10.82 0-5.564.317-9 1.439-10.803 1.029-1.626 3.668-2.03 6.462-2.03 2.559 0 4.956.32 7.519 1.22v-6.883c-2.079-1.064-5.282-1.641-8.231-1.641-5.517 0-11.016.816-14.051 4.019-2.872 3.038-3.828 9.401-3.828 16.119 0 6.706.956 13.03 3.828 16.063 3.035 3.278 8.534 4.096 14.051 4.096 2.713 0 5.589-.407 7.503-1.393l1.524-7.137c-2.802.903-5.197 1.235-8.315 1.235-2.794 0-5.433-.397-6.462-2.045zm58.982 4.729c0 5.778 4.664 6.53 10.054 6.53V53.991h15.403v-7.456h-15.403v-8.356h16.853v-7.476h-26.907zm66.713.596h.407c.48 0 .869-.162.869-.553 0-.35-.254-.59-.8-.59a1.75 1.75 0 0 0-.476.052zm-.028 2.144h-.867v-3.814a9.295 9.295 0 0 1 1.44-.118c.705 0 1.029.118 1.278.298.225.16.385.441.385.818 0 .467-.343.771-.776.91v.047c.366.118.55.411.665.933.111.578.205.79.279.926h-.918c-.118-.135-.182-.46-.297-.926-.069-.398-.296-.586-.776-.586h-.413zm-2.305-1.98c0 1.706 1.255 3.054 2.918 3.054 1.623.028 2.853-1.348 2.853-3.032 0-1.697-1.23-3.072-2.893-3.072-1.623 0-2.878 1.375-2.878 3.05zm6.73 0c0 2.15-1.688 3.851-3.832 3.851a3.83 3.83 0 0 1-3.855-3.85c0-2.143 1.713-3.826 3.875-3.826 2.124 0 3.812 1.683 3.812 3.826z" clip-rule="evenodd" fill="#000" fill-rule="evenodd"/></g></svg>
