<svg fill="none" height="129" viewBox="0 0 335 129" width="335" xmlns="http://www.w3.org/2000/svg"><g clip-rule="evenodd" fill="#000" fill-rule="evenodd"><path d="M48.106 85.983v6.905H4.926V45.402h7.773v40.581zM42.062 62.67l8.634-16.406h-8.203L36.015 62.67zm70.597-9.473c-2.8-4.406-6.889-8.11-11.705-10.633-4.816-2.525-10.358-3.87-15.899-3.87-5.54 0-11.085 1.345-15.899 3.87-4.816 2.523-8.907 6.227-11.706 10.633-2.8 4.404-4.312 9.511-4.312 14.62 0 5.105 1.512 10.213 4.312 14.617 2.8 4.406 6.889 8.11 11.706 10.633 4.816 2.525 10.359 3.87 15.9 3.87 5.54 0 11.082-1.343 15.898-3.87 4.816-2.523 8.905-6.227 11.705-10.633 2.802-4.404 4.312-9.513 4.312-14.618 0-5.106-1.51-10.214-4.312-14.62zm-6.719 26.248c-2.089 3.455-5.146 6.37-8.754 8.36-3.608 1.988-7.765 3.048-11.924 3.048s-8.316-1.06-11.924-3.049c-3.606-1.99-6.663-4.902-8.754-8.36-2.09-3.456-3.214-7.453-3.214-11.45 0-4 1.123-7.997 3.214-11.452 2.09-3.455 5.146-6.37 8.754-8.358 3.608-1.99 7.767-3.05 11.924-3.05 4.157 0 8.316 1.06 11.924 3.05 3.608 1.989 6.663 4.901 8.754 8.358a22.243 22.243 0 0 1 3.215 11.452 22.253 22.253 0 0 1-3.215 11.45zm65.237-13.565c-1.406 3.094-4.065 4.882-6.145 5.963-2.08 1.083-3.58 1.458-5.09 1.404l15.113 19.643h-8.636l-14.616-18.994h-19.066V92.89h-7.772V45.402h31.089c3.142 0 6.329.619 9.141 2.2 2.812 1.582 5.246 3.985 6.389 7.387 1.142 3.399.996 7.798-.407 10.891zm-8.695-.325c1.638-1.383 2.607-3.658 2.522-5.914-.083-2.258-1.222-4.493-2.847-5.857-1.626-1.362-3.705-1.475-5.67-1.475h-23.75v14.678h23.75c2.099 0 4.358-.047 5.995-1.432zm53.594.137v6.474h-26.341v13.817h35.407v6.905h-43.181V45.402h43.181v6.907h-35.407v13.383zm.431-27.631h-11.66l-4.748 6.044zm23.86 42.74-6.158 12.087h-7.77L250.617 45.4h7.774l24.182 47.488h-7.774L268.645 80.8zm14.136-27.768-11.062 21.725h22.124zm75.134 32.95v6.905h-43.178V45.402h7.77v40.581zm-3.365-31.052-.068-1.133c-.01-.208.007-.417-.078-.653a2.081 2.081 0 0 0-.384-.664.748.748 0 0 0-.478-.27 1.51 1.51 0 0 0 .801-.653c.203-.325.329-.754.323-1.215a2.5 2.5 0 0 0-.391-1.32c-.53-.776-1.463-.908-2.28-.87h-3.439v7.934h1.335v-3.259h1.995c.217 0 .58-.03.943.254.482.568.268 1.316.353 1.95.007.379.044.737.2 1.055h1.5v-.245c-.273-.113-.297-.51-.332-.91zm-1.649-3.495c-.414.264-.842.266-1.137.26h-1.884v-2.415c.822.01 1.649-.035 2.464.031a1.105 1.105 0 0 1 .88.626c.172.525.179 1.088-.323 1.498z"/><path d="M329.175 48.746a6.74 6.74 0 0 0-2.451-2.45c-1.011-.585-2.179-.897-3.347-.897s-2.336.312-3.348.896a6.738 6.738 0 0 0-2.45 2.45 6.738 6.738 0 0 0-.9 3.348c0 1.168.316 2.336.9 3.346a6.75 6.75 0 0 0 2.45 2.45c1.012.584 2.18.897 3.348.897s2.336-.313 3.347-.897a6.74 6.74 0 0 0 2.451-2.45c.583-1.012.9-2.178.9-3.346a6.748 6.748 0 0 0-.9-3.347zm-.802 6.258a5.742 5.742 0 0 1-2.083 2.079 5.702 5.702 0 0 1-7.774-2.079 5.685 5.685 0 0 1 0-5.68 5.69 5.69 0 0 1 7.774-2.078 5.747 5.747 0 0 1 2.083 2.079 5.72 5.72 0 0 1 .762 2.84 5.7 5.7 0 0 1-.762 2.84z"/></g></svg>
