<svg fill="none" height="132" viewBox="0 0 217 132" width="217" xmlns="http://www.w3.org/2000/svg"><clipPath id="a"><path d="M0 0h217v132H0z"/></clipPath><g clip-path="url(#a)" fill="#000"><path d="M.038.065c24.73-.009 49.45-.018 74.18.01 8.443 8.804 16.934 17.562 25.425 26.32 8.414-8.824 16.962-17.534 25.396-26.33 24.863-.009 49.735-.009 74.589 0 .009 18.077-.01 36.144.009 54.23-.057.823.181 1.74-.228 2.508-6.168 9.908-11.518 20.331-15.535 31.26-.514 1.178-.99 2.535-2.151 3.255-.99.412-2.446.234-2.979-.795-.705-1.3-.667-2.816-.867-4.238-.647-5.511-1.237-11.05-2.16-16.533-.552-2.798-1.181-5.82-3.303-7.925-1.99-1.909-5.036-2.096-7.625-1.478-2.38.514-4.617 1.909-5.816 4.032-1.561 2.63-1.542 5.82-.98 8.73.98 5.1 2.732 10.011 4.521 14.886 3.541 9.188 7.13 18.376 10.68 27.554.885 2.349 2.285 4.772 4.731 5.829 2.104.871 4.483.861 6.711.543 1.932-.29 3.598-1.553 4.559-3.19 1.79-2.994 2.485-6.447 3.541-9.731 2.113-6.699 4.141-13.454 6.863-19.948.057 14.297 0 28.603.019 42.899-15.515.01-31.04 0-46.565.01-.629-5.315-1.086-10.676-.8-16.019.066-5.22.286-10.413.228-15.634.162-7.57-.837-15.073-1.275-22.624-.495-5.857.152-11.752-.381-17.609 4.407-2.713 9.005-5.099 13.44-7.765 2.98-1.816 6.178-3.378 8.729-5.792 1.409-1.347 2.504-3.406 1.657-5.333-1.79-3.574-6.502-5.511-10.3-3.94-3.112 1.404-4.959 4.464-7.796 6.241-3.541 2.152-7.11 4.267-10.746 6.279-2.751-1.413-6.054-1.881-9.024-.964-1.618.514-3.113 1.6-3.76 3.181-.761 1.74-.124 3.65-.466 5.436-.219 1.104-1.095 1.89-2.047 2.414-4.017 2.34-8.072 4.622-12.079 6.98-4.122 2.367-8.12 5.09-12.755 6.41-2.818.813-6.121 1.749-7.482 4.574-1.304 2.751.238 5.914 2.418 7.748 1.875 1.759 4.74 2.133 7.139 1.3 3.131-1.01 5.711-3.144 8.31-5.053 3.236-2.432 6.548-4.752 9.861-7.082 1.789-1.207 3.589-2.526 5.692-3.172 1.428-.524 3.227.084 3.827 1.506 1.418 3.125.971 6.662 1.037 9.993.086 11.115-.952 22.193-1.342 33.299-.028 5.212-.076 10.414.172 15.626-4.113-.019-8.215.037-12.327-.038.038-12.294.028-24.598.009-36.892-7.805 6.446-15.601 12.921-23.397 19.368-7.815-6.438-15.601-12.912-23.397-19.35-.02 12.295-.01 24.608 0 36.902-25.396.019-50.802.01-76.188 0C.038 87.987.038 44.031.038.066z"/><path d="M81.195.084c7.53 3.21 15.011 6.484 22.531 9.703 1.143.468 1.875 1.478 2.732 2.301-2.237 2.415-4.597 4.716-6.834 7.14C93.494 12.836 87.278 6.53 81.195.083zM204.644 0c4.122 2.433 8.253 4.847 12.346 7.307-.029 8.954-.01 17.918-.01 26.881a172.78 172.78 0 0 0-12.317 14.952c-.047-16.374-.009-32.757-.019-49.14zm.933 76.489c3.37-6.185 7.139-12.183 11.384-17.825.019 24.43 0 48.86.01 73.28-4.112.009-8.224.009-12.337 0-.009-17.525.01-35.059-.009-52.592-.095-1.039.476-1.965.952-2.864zM81.233 105.68c3.408 2.779 6.759 5.652 10.204 8.384.067 5.96.02 11.92.03 17.889H81.232c0-8.757-.01-17.524 0-26.273zm25.787 9.086c3.626-3.013 7.262-6.017 10.899-9.02-.029 2.423.038 4.847-.048 7.251a86.643 86.643 0 0 0-2.237 1.787c-2.884.01-5.74.038-8.614-.018z"/></g></svg>
