<svg width="240" height="70" fill="none" xmlns="http://www.w3.org/2000/svg"><path fill-rule="evenodd" clip-rule="evenodd" d="M232.979 23.505c-.282-3.018-.976-5.769-2.062-8.298 1.855-3.865 3.761-5.295 3.761-5.295s3.92 10.034.48 20.347c-2.127 6.38-4.673 10.233-6.038 11.888-.305.369-.574.483-.408.26 3.215-4.335 4.986-11.228 4.267-18.902zm3.114 12.163c-1.588 1.913-3.194 3.77-4.967 5.19-.255.203-.416.188-.22-.025 6.274-6.849 13.089-22.025 4.256-36.981 0 0-3.492 2.411-6.36 7.41C225.976 6.909 221.86 3.26 216.739 0c0 0-12.956 14.44-7.225 35.359-16.528 2.28-10.526 15.04-7.906 16.876.121.086.225.043.056-.216-.929-1.425-3.526-6.409 1.828-11.188 2.872-2.564 8.894-3.233 8.894-3.233-1.369-10.044-1.273-19.118 5.59-29.162.877.581 10.916 4.995 11.293 19.853.84 9.319-3.999 16.778-8.694 19.681-8.321 4.464-17.659 6.653-25.776 8.558-.689.163-.421.238.039.217 19.286-.81 36.431-9.485 43.022-17.762 1.27-1.59 1.838-3.344.982-4.314-.855-.97-2.403.578-2.749.999zM166.426 41.803c.484-3.099 1.855-4.577 7.618-4.577 6.145 0 7.596 1.607 7.899 4.577h-15.517zm7.618-9.268c-4.005 0-13.383 0-13.383 12.343 0 12.347 9.378 12.347 13.383 12.347h12.407V52.53h-12.407c-6.302 0-7.623-1.586-7.901-6.036h21.536v-1.616c0-12.343-9.208-12.343-13.635-12.343zM135.681 41.803c.486-3.099 1.858-4.576 7.619-4.576 6.144 0 7.595 1.606 7.899 4.576h-15.518zm7.619-9.268c-4.004 0-13.383 0-13.383 12.343 0 12.346 9.379 12.346 13.383 12.346h12.406v-4.693H143.3c-6.303 0-7.623-1.586-7.902-6.036h21.537v-1.617c0-12.343-9.21-12.343-13.635-12.343zM112.319 52.53c-8.34 0-8.682-1.584-8.682-7.652 0-5.94.37-7.651 8.682-7.651 8.316 0 8.688 1.711 8.688 7.651 0 5.94-.372 7.653-8.688 7.653zm0-19.995c-7.449 0-14.137.944-14.137 12.343V69.49h5.455V55.924c2.604 1.196 5.834 1.3 8.682 1.3 7.455 0 14.144-.942 14.144-12.346 0-11.399-6.689-12.343-14.144-12.343zM73.201 41.803c.485-3.099 1.859-4.576 7.618-4.576 6.144 0 7.596 1.606 7.901 4.576H73.201zm7.618-9.268c-4.004 0-13.381 0-13.381 12.343 0 12.346 9.377 12.346 13.381 12.346h12.409v-4.693H80.819c-6.302 0-7.621-1.586-7.9-6.036h21.536v-1.617c0-12.343-9.212-12.343-13.636-12.343zM42.457 41.803c.486-3.099 1.858-4.576 7.62-4.576 6.144 0 7.597 1.606 7.9 4.576h-15.52zm7.62-9.268c-4.004 0-13.383 0-13.383 12.343 0 12.346 9.379 12.346 13.383 12.346h12.406v-4.693H50.077c-6.303 0-7.621-1.586-7.902-6.036h21.537v-1.617c0-12.343-9.21-12.343-13.635-12.343zM36.314 19.719l-15.12 30.55L6.13 19.876l-.083-.158H0l18.665 36.806.085.148h4.894L42.367 19.72h-6.053z" fill="#000"/></svg>
