<svg width="400" height="38" viewBox="0 0 400 38" fill="none" xmlns="http://www.w3.org/2000/svg"><g clip-path="url(#a)" fill-rule="evenodd" clip-rule="evenodd"><path d="M100.833.136C99.178.344 96 2.427 96 3.304c0 .092-.056.193-.125.224-.474.211-1.925 4.233-2.304 6.389-.049.275-.201.89-.339 1.367a18.257 18.257 0 0 0-.334 1.322c-.045.25-.117.51-.16.58-.042.069-.145.449-.228.845-.083.395-.419 1.792-.747 3.102-.995 3.977-.796 4.656 1.57 5.349.138.04 4.701.117 10.14.171l9.89.097.402.468c.666.774.405 2.495-1.217 8.032-1.139 3.889.335 3.5-13.283 3.5H88.114l-.306 1.083c-.169.596-.307 1.178-.307 1.294-.001.267 27.511.295 28.582.029l.944-.232c2.804-.669 5.915-4.834 6.523-8.731.024-.152.09-.351.147-.443.057-.092.146-.429.197-.75.052-.321.243-1.183.425-1.917.182-.733.447-1.933.589-2.666.46-2.383.625-3.159.777-3.65.231-.752.175-2.663-.097-3.315-.68-1.626-1.077-1.679-11.921-1.584-4.904.043-9.179.019-9.5-.053-1.743-.391-1.722-1.943.109-8.012.953-3.159.729-3.108 13.771-3.13 5.511-.01 10.058-.056 10.106-.103.137-.138.498-1.614.506-2.07l.007-.417h-13.708c-7.539 0-13.895.024-14.125.053zm46.334.02c-2.413.364-4.349 1.952-5.605 4.594-.366.77-1.012 2.98-1.901 6.5l-1.42 5.625c-.041.16-.105.423-.141.583-.037.161-.199.782-.359 1.381-.457 1.709.042 3.109 1.217 3.408.252.065.609.163.792.219.183.055 4.721.142 10.083.192 10.474.099 10.283.081 10.656.982.155.375.165 1.61.013 1.61-.016 0-.065.225-.108.5-.179 1.13-1.841 7.165-2.158 7.838-.569 1.204-.162 1.168-12.559 1.111l-11.098-.052-.305 1.135a25.71 25.71 0 0 1-.388 1.349c-.069.174 2.643.206 14.39.167l14.474-.048 1-.401c2.964-1.189 4.828-3.582 5.919-7.599.074-.275.263-.95.418-1.5.156-.55.307-1.177.335-1.393.029-.216.127-.591.218-.834.091-.242.214-.702.274-1.023.164-.88.238-1.243.69-3.417 1.022-4.904.776-6.602-.996-6.872a1.304 1.304 0 0 1-.543-.227c-.145-.12-3.292-.158-9.937-.121-10.654.059-10.407.08-10.785-.914-.169-.444-.074-2 .166-2.727.096-.292.212-.742.257-1.001.453-2.605 1.185-4.614 1.976-5.429 1.004-1.034.815-1.018 12.383-1.083 6.448-.037 10.55-.122 10.563-.218.011-.087.033-.214.049-.283.161-.709.318-1.513.343-1.75.029-.273-.415-.291-7.247-.291-4.003 0-10.084-.034-13.514-.075-3.43-.041-6.648-.012-7.152.064zm69.674.028c-1.91.369-4.731 2.665-5.098 4.149-.011.046-.181.442-.378.88-.304.678-1.093 3.308-1.274 4.247-.031.16-.147.629-.258 1.041-.112.412-.231.899-.265 1.082-.034.184-.175.746-.313 1.25a371.626 371.626 0 0 0-1.621 6.346c-.221.926-.078 1.802.392 2.4.782.994 1.764 1.081 12.284 1.091 9.757.008 9.839.015 10.126.87.223.662.229.859.05 1.749-.096.48-.183.93-.192 1-.009.07-.187.765-.395 1.544-.207.78-.533 2.017-.724 2.75-.19.734-.42 1.464-.51 1.623-.091.159-.165.4-.165.536 0 .672-.568 1.409-1.332 1.726-.754.313-1.158.322-11.698.244l-10.916-.08-.288 1.059a228.46 228.46 0 0 1-.374 1.358c-.082.286.534.297 14.303.25l14.388-.049 1.084-.399c1.337-.492 2.566-1.337 3.333-2.292.321-.4.674-.83.784-.957.241-.275 1.219-2.383 1.596-3.435.464-1.298 1.414-5.135 2.043-8.25.333-1.65.641-3.15.684-3.334.19-.811.102-2.686-.148-3.166-.269-.517-1.126-1.411-1.126-1.176 0 .073-.124.03-.276-.096-.227-.188-2.036-.228-10.216-.228-11.154 0-10.648.055-10.998-1.207-.247-.889-.229-1.063.34-3.293l.816-3.201c.34-1.335.36-1.379 1.034-2.246.992-1.277 1.003-1.278 13.323-1.292l9.774-.011.101-.542c.056-.298.114-.617.129-.708.015-.092.08-.4.144-.685l.117-.518-1.796-.109c-2.614-.159-25.608-.09-26.484.079zm42.471-.017a6.874 6.874 0 0 0-.07.416c-.027.184-.195.859-.374 1.5-.556 1.994-1.216 4.485-1.281 4.834-.034.183-.073.333-.087.333-.014 0-.051.112-.082.25a157.4 157.4 0 0 1-.581 2.25c-.688 2.619-1.825 7.077-1.913 7.5a63.209 63.209 0 0 1-.502 1.917 741.822 741.822 0 0 0-2.532 9.666c-.41 1.605-.932 3.629-1.16 4.5-.228.871-.44 1.696-.472 1.834-.032.137-.171.681-.309 1.208l-.251.958h5.308c3.466 0 5.345-.059 5.414-.172.058-.094.366-1.2.683-2.458.674-2.672.551-2.189 1.313-5.12a1853.51 1853.51 0 0 0 1.489-5.75c.035-.137.262-1 .504-1.916.243-.917.549-2.155.682-2.75.132-.596.286-1.196.341-1.334.055-.137.387-1.375.737-2.75.351-1.375.841-3.25 1.09-4.166.25-.917.514-1.93.588-2.25a58.24 58.24 0 0 1 .404-1.584c.148-.55.448-1.712.666-2.583.218-.871.55-2.146.737-2.833.187-.688.342-1.305.343-1.371.003-.133-10.651-.262-10.685-.129zm51.228.336a31.29 31.29 0 0 1-1.285 1.084c-1.266 1.013-1.622 1.308-1.911 1.58-.145.137-1.389 1.185-2.763 2.327A201.03 201.03 0 0 0 302 7.661c-.046.049-.532.464-1.08.922a40.58 40.58 0 0 0-1.257 1.084c-.144.137-.558.489-.921.781a68.088 68.088 0 0 0-2.392 1.999c-.72.638-.497.969-2.175-3.229-.725-1.816-1.411-3.526-1.523-3.801a6.31 6.31 0 0 1-.244-.691c-.022-.105-.229-.63-.461-1.166a83.674 83.674 0 0 1-.892-2.183l-.472-1.206-5.041-.002c-2.773-.001-5.042.026-5.042.06 0 .128.517 1.539.74 2.021.127.275.383.913.568 1.417.36.983 1.73 4.487 2.867 7.333a173.374 173.374 0 0 1 1.398 3.583c.068.184.189.484.269.667.08.183.414 1.046.743 1.917.328.87.677 1.726.774 1.901.186.335-.072.643-1.526 1.827a31.44 31.44 0 0 0-1.25 1.093c-.366.34-1.027.893-1.467 1.229-.441.336-.911.721-1.046.856s-.599.53-1.031.878c-.433.348-1.838 1.532-3.123 2.632-1.285 1.1-2.706 2.3-3.159 2.667-.764.619-2.065 1.725-2.257 1.917-.046.046-.758.646-1.583 1.333a87.721 87.721 0 0 0-1.584 1.337c-.046.048-.532.46-1.081.917-.548.456-1.185.998-1.415 1.204l-.417.375h4.033l1.732-1.435c.952-.79 1.854-1.558 2.003-1.708.149-.151.412-.386.583-.525 1.87-1.506 2.407-1.952 2.979-2.477.367-.337 1.042-.91 1.5-1.275.458-.365.871-.704.917-.754.045-.049.758-.647 1.583-1.328s2.028-1.69 2.674-2.243c.646-.552 1.542-1.305 1.992-1.671.449-.367 1.083-.91 1.409-1.208.646-.591.842-.663.842-.314 0 .203.303.994.87 2.272.102.229.201.494.221.589.019.095.188.545.374 1A550.097 550.097 0 0 1 293.663 34c.474 1.237.968 2.494 1.097 2.792l.235.541h5.169c3.372 0 5.169-.058 5.169-.168 0-.093-.157-.524-.35-.958-.192-.435-.407-.94-.477-1.124-.071-.183-.209-.52-.308-.75a46.087 46.087 0 0 1-.505-1.25c-.781-1.999-1.262-3.178-1.362-3.333-.059-.092-.239-.542-.401-1-.162-.458-.4-1.07-.529-1.359-.129-.288-.234-.577-.234-.641 0-.064-.113-.371-.25-.683A54.056 54.056 0 0 1 299.653 23a332.99 332.99 0 0 0-1.696-4.25 684.91 684.91 0 0 1-1.214-3c-.035-.092.289-.446.721-.786a29.498 29.498 0 0 0 1.309-1.099 33.34 33.34 0 0 1 1.333-1.13c.446-.358.892-.727.991-.818.1-.092.581-.505 1.07-.917.488-.413.97-.825 1.07-.917.1-.091.631-.541 1.181-.998a62.105 62.105 0 0 0 1.608-1.388c.336-.305.856-.737 1.157-.959.3-.222.589-.466.64-.543.052-.077.216-.209.365-.293.149-.083.817-.639 1.483-1.235.666-.596 1.412-1.234 1.657-1.417.245-.183 1.146-.933 2.002-1.667L314.886.25l-.568-.038c-2.715-.184-3.31-.138-3.778.291zm59.252-.376c-2.911.025-5.292.072-5.292.106s.231.69.513 1.456c.437 1.185 1.049 2.972 1.221 3.561.027.092.093.279.147.417.054.137.597 1.75 1.208 3.583a368.94 368.94 0 0 0 1.204 3.583c.052.138.105.288.117.334.107.41.968 2.991 1.084 3.25.187.418.836 2.249.916 2.583.033.137.254.838.49 1.557.322.981.387 1.385.259 1.625-.094.175-.131.318-.083.318s-.019.281-.149.625c-.22.581-.821 2.625-.772 2.625.012 0-.12.412-.293.917-.173.504-.318.954-.321 1-.003.045-.203.758-.445 1.583l-.708 2.417a20.49 20.49 0 0 1-.4 1.25c-.254.644-1.155 3.877-1.155 4.148 0 .248.48.269 5.285.229l5.284-.044.226-.75c.124-.413.257-.903.296-1.091.081-.392 1.295-4.629 1.645-5.742.199-.63.298-.988.508-1.834.011-.046.114-.383.229-.75.114-.366.289-.966.388-1.333.692-2.563.976-3.17 2.203-4.715a276.592 276.592 0 0 0 2.255-2.868l1.13-1.429c.441-.556 1.026-1.297 1.301-1.647.275-.349.913-1.139 1.417-1.755a96.694 96.694 0 0 0 1.833-2.33 40.62 40.62 0 0 1 1.091-1.4c.096-.104 1.096-1.352 2.223-2.773a412.057 412.057 0 0 1 2.325-2.917c.153-.184.539-.671.857-1.083.318-.412.622-.787.676-.833.053-.046.313-.383.578-.75.265-.367.587-.755.715-.864.184-.154-.126-.208-1.439-.25l-1.674-.053-.798 1c-.439.55-.838 1.038-.885 1.084a13.05 13.05 0 0 0-.578.75 44.916 44.916 0 0 1-1.332 1.677 51.781 51.781 0 0 0-1.259 1.566c-.229.306-1.316 1.683-2.416 3.061-1.1 1.378-2.3 2.894-2.667 3.369a122.166 122.166 0 0 1-2.833 3.554 65.728 65.728 0 0 0-1.476 1.848l-.81 1.054-.217-.481c-.119-.265-.628-1.757-1.13-3.315a308.678 308.678 0 0 0-1.577-4.75 239.845 239.845 0 0 1-.91-2.667C376.972 5.312 375.279.39 375.19.25c-.068-.107-2.004-.151-5.398-.123zM72.014.792l-.608 2.291c-.416 1.569-.628 2.442-.829 3.417a6.549 6.549 0 0 1-.244.833c-.087.23-.23.717-.318 1.084-.221.928-1.398 5.494-1.932 7.5-.245.916-.478 1.854-.519 2.083-.04.229-.115.529-.166.667-.139.374-.728 2.679-.826 3.236-.048.267-.124.546-.17.621-.046.074-.411 1.43-.812 3.014-.4 1.583-.891 3.479-1.089 4.212-.801 2.952-1.216 4.533-1.357 5.167l-.232 1.037a7.061 7.061 0 0 1-.248.802c-.09.238-.164.465-.164.505 0 .236 10.834.059 10.854-.178.026-.306.049-.409.189-.833.061-.183.155-.558.209-.833.154-.78.166-.821.304-1.042.072-.115.09-.208.041-.208-.049 0-.01-.207.086-.459.096-.252.236-.758.311-1.125.129-.633 1.215-4.837 1.733-6.708.134-.481.219-.875.191-.875-.029 0 .059-.356.194-.792.136-.435.429-1.504.651-2.375a182.8 182.8 0 0 1 .657-2.5c.139-.504.293-1.141.343-1.416.049-.275.266-1.138.482-1.917.506-1.824.65-2.378.672-2.583.009-.092.098-.43.196-.75.256-.836 1.1-4.048 1.307-4.977.034-.15.336-1.323.672-2.607.335-1.283.645-2.52.688-2.75a4.5 4.5 0 0 1 .219-.75c.077-.183.182-.577.233-.875l.093-.541H72.18l-.166.625zm249.042.583-.328 1.208 6.646.044c6.224.041 6.642.062 6.563.333-.33 1.129-.606 2.198-.679 2.623-.047.275-.166.763-.264 1.084-.098.32-.545 2.008-.993 3.75a841.472 841.472 0 0 1-1.416 5.416c-.33 1.238-.638 2.475-.685 2.75-.046.275-.227.95-.402 1.5-.277.872-1.785 6.608-2.169 8.25-.075.321-.375 1.484-.666 2.584a2768.316 2768.316 0 0 0-1.212 4.583 62.564 62.564 0 0 0-.35 1.375l-.107.458h10.166l.106-.458c.161-.699 1.349-5.321 2.088-8.125.627-2.377.8-3.075.879-3.537a.683.683 0 0 1 .151-.319c.064-.064.116-.272.116-.463s.179-.929.399-1.639c.219-.711.371-1.292.337-1.292-.034 0 .012-.191.101-.425.089-.234.199-.628.245-.875.046-.248.199-.863.341-1.367.142-.504.285-1.035.319-1.181.034-.146.141-.558.237-.917.097-.358.297-1.139.446-1.735.422-1.695 1.041-4.026 1.237-4.667.099-.321.222-.846.275-1.166.053-.321.138-.653.19-.737.052-.085.152-.423.221-.75.245-1.156.659-2.768.817-3.18.087-.229.187-.604.221-.833.161-1.073-.332-1 6.793-1 7.184 0 6.69.078 6.881-1.097.044-.267.094-.487.112-.487.018 0 .057-.206.087-.458l.054-.458h-36.43l-.327 1.208z" fill="#14140C"/><path d="M9.608.127c-.09.145-.725 2.6-.951 3.676-.083.396-.202.802-.265.904-.063.101-.17.452-.24.78-.067.328-.511 2.096-.985 3.93a1167.46 1167.46 0 0 0-1.01 3.916c-.08.321-.492 1.896-.916 3.5-.77 2.907-.917 3.486-1.217 4.75a51.97 51.97 0 0 1-.441 1.667 125.746 125.746 0 0 0-1.402 5.417c-.297 1.265-1.037 4.114-1.21 4.654-.231.731-.81 2.958-.922 3.554l-.087.458h1.742c1.972 0 1.955.013 2.315-1.657.09-.417.228-1.022.307-1.343.238-.967 1.008-4.04 1.18-4.708.088-.344.242-.944.34-1.333.1-.39.283-1.084.408-1.542.38-1.401 1.939-7.594 2.245-8.917C8.875 16.203 11.038 7.65 11.237 7c.127-.413.318-1.125.424-1.583.24-1.039.493-1.993.727-2.75l.18-.584.14.75c.217 1.153.425 2.31.63 3.5.102.596.288 1.571.412 2.167.124.596.306 1.552.405 2.125a906.678 906.678 0 0 0 1.012 5.792l.309 1.75c.462 2.616.56 3.143.718 3.833.094.412.235 1.162.313 1.667.079.504.222 1.348.318 1.875a905.376 905.376 0 0 1 1.349 7.541L18.499 35c.1.596.267 1.365.369 1.708l.185.625h3.557c2.077 0 3.557-.064 3.557-.154 0-.086.094-.254.208-.375.264-.278 1.125-1.599 1.125-1.724 0-.052.076-.185.17-.295.093-.111.85-1.289 1.685-2.618.834-1.33 1.808-2.845 2.164-3.367.356-.523.648-1.023.648-1.111 0-.089.06-.186.134-.217.075-.03.388-.505.698-1.055.309-.55.606-1.038.66-1.084.054-.046.405-.571.779-1.166 2.805-4.463 3.74-5.939 3.855-6.084.073-.091.35-.54.617-.997.266-.457.547-.907.625-1 .077-.093.486-.732.909-1.419.422-.688 1.085-1.738 1.473-2.334.388-.596 1.05-1.645 1.473-2.333.422-.687.826-1.325.897-1.417.368-.472 1.046-1.596 1.046-1.732 0-.086.057-.182.125-.212.16-.071 1.209-1.781 1.209-1.97 0-.077.057-.166.128-.197.07-.03.38-.452.688-.937.765-1.204.77-1.094.085 1.562A553.11 553.11 0 0 0 46.824 8c-.08.321-.492 1.896-.917 3.5a300.034 300.034 0 0 0-.93 3.583 57.853 57.853 0 0 1-.727 2.834A147.488 147.488 0 0 0 43.167 22c-.077.321-.3 1.183-.492 1.917a79.033 79.033 0 0 0-.502 2c-.156.688-.272 1.123-.75 2.833-.572 2.042-1.963 7.518-2.043 8.042l-.083.541h5.334c5.932 0 5.422.105 5.709-1.166.185-.819 1.405-5.547 1.742-6.75.398-1.42.568-2.072.74-2.834.342-1.514 1.49-5.914 1.584-6.065.055-.089.167-.486.249-.882.155-.745 1.477-5.907 3.107-12.136 1.038-3.968 1.146-4.396 1.392-5.544.094-.437.247-.938.34-1.114.469-.873.709-.842-6.536-.841L46.25.003l-.417.707c-.23.388-.446.778-.483.866a1.721 1.721 0 0 1-.21.333c-.141.174-.61.902-2.304 3.591-.491.779-1.132 1.792-1.424 2.25-.291.458-.854 1.358-1.25 2-.396.642-1.034 1.654-1.418 2.25-.384.596-1.022 1.608-1.418 2.25-1.113 1.803-1.974 3.147-2.16 3.368-.091.111-.166.237-.166.281 0 .08-1.473 2.431-3.745 5.977C30.565 24.954 30 25.91 30 26.001a.167.167 0 0 1-.167.166.17.17 0 0 0-.166.172c0 .094-.322.652-.716 1.239l-.716 1.067-.208-1.198c-.114-.658-.274-1.535-.355-1.947-.137-.7-.218-1.158-.684-3.875a70.21 70.21 0 0 0-.405-2.125 78.62 78.62 0 0 1-.412-2.167c-.102-.596-.254-1.458-.338-1.916-.083-.459-.236-1.321-.34-1.917a805.745 805.745 0 0 0-.662-3.75c-.082-.458-.233-1.321-.335-1.917-.103-.596-.29-1.57-.415-2.166a58.48 58.48 0 0 1-.418-2.25 26.438 26.438 0 0 0-.343-1.77 5.556 5.556 0 0 1-.153-1.125V0h-6.74c-3.708 0-6.776.057-6.82.127zM74 .118c4.833.118 9 .121 9 .007 0-.069-2.456-.109-5.458-.089-3.002.02-4.596.057-3.542.082zm35.529.007c3.454.025 9.154.025 12.667 0s.687-.046-6.279-.046c-6.967 0-9.841.021-6.388.046zm37.679-.01c.161.042.423.042.584 0 .16-.042.029-.076-.292-.076s-.452.034-.292.076zm13.738.01c2.584.026 6.859.026 9.5 0 2.642-.026.529-.047-4.696-.047s-7.387.021-4.804.047zm82.429-.004c.344.036.906.036 1.25 0s.063-.065-.625-.065c-.687 0-.969.029-.625.065zm21.283.004c3.937.035 5.275.098 5.373.252.092.145.131.12.133-.085.002-.273-.349-.289-5.372-.253l-5.375.039 5.241.047zm15.675 0c0 .069 1.519.106 3.375.082 6.43-.081 7.018-.136 1.834-.171-2.865-.02-5.209.02-5.209.089zm32.641 0c1.759.049 1.875.073 1.667.339-.202.258-.196.264.067.057.56-.439.279-.521-1.666-.485l-1.959.035 1.891.054zm14.859-.002C345.162.237 358 .238 358 .125c0-.069-8.269-.107-18.375-.085-10.106.022-15.413.059-11.792.083zm36.609.002c-.042.069 1.509.106 3.449.083 6.576-.08 7.209-.137 1.911-.172-2.906-.02-5.317.02-5.36.089zm33.189-.002c.484.034 1.234.033 1.666-.001.433-.034.036-.062-.88-.061-.917 0-1.271.028-.786.062zm1.792.641c-.156.238-.254.46-.219.495.035.035.195-.159.356-.431.359-.608.252-.658-.137-.064zm-301.256.251c-.277.226-.305.283-.084.168.544-.281.845-.511.667-.51-.092.001-.354.154-.583.342zm211.349.162c-.309.269-.495.487-.414.484.19-.006 1.124-.824 1.039-.909-.036-.036-.317.156-.625.425zm-212.68.904c-.31.319-.531.606-.491.638.039.031.324-.23.633-.581.7-.797.61-.834-.142-.057zm147.844.209-.013.374-9.875.044-9.875.045 9.88.04c10.423.043 10.269.053 9.982-.663-.047-.117-.092-.045-.099.16zm112.597.118c-.086.222-.948.261-6.646.3l-6.548.046 6.608.04c6.69.04 7.312-.013 6.75-.575-.036-.037-.111.048-.164.189zm-182.61.091c0 .107-3.541.181-10.042.209l-10.042.045 10.125.04c8.907.035 10.125.01 10.125-.21 0-.137-.037-.25-.083-.25-.046 0-.083.075-.083.166zm-56.084.168-9.666.087 9.708.04c6.388.026 9.708-.018 9.708-.127 0-.092-.018-.149-.041-.127-.023.021-4.392.079-9.709.127zm204.334.119c5.92.117 11.083.119 11.083.006 0-.069-3.019-.109-6.708-.089-3.69.021-5.659.058-4.375.083zm-170.51.473c-.318.255-.318.257.01.106.183-.084.445-.195.583-.246.216-.08.215-.094-.01-.106-.143-.007-.405.104-.583.246zm158.51.343-.667.596.708-.53c.61-.456.83-.675.667-.666-.023.002-.342.271-.708.6zm-205.511.106-.489.541.5-.414c.275-.227.571-.471.658-.541.098-.079.094-.127-.01-.127-.093 0-.39.243-.659.541zm116.478-.113-.467.429.541-.377c.298-.207.542-.4.542-.428 0-.132-.184-.019-.616.376zm84.199.527-1 .924 1-.806c.55-.443 1.032-.828 1.07-.856.038-.028.038-.081 0-.118-.038-.037-.52.348-1.07.856zm87.347-.158-.32.453.445-.404c.468-.425.525-.516.32-.508-.069.003-.269.209-.445.459zm3.354.136c-.165.22-.239.4-.165.4.145 0 .605-.666.518-.75-.03-.028-.188.129-.353.35zm-90.657 3.497c-.342.313-.567.567-.5.565.164-.007 1.254-1.003 1.18-1.077-.032-.032-.338.198-.68.512zm88.106-.222c-.73.842-.947 1.125-.862 1.125.049 0 .365-.338.703-.75.626-.764.75-1.057.159-.375zm-174.295.813c-.139.694-.005.829.145.145.064-.288.081-.558.038-.601-.042-.042-.125.163-.183.456zm79.216 1.755-.404.443.542-.391c.563-.407.635-.495.404-.495-.076 0-.32.199-.542.443zm79.353-.004c-.004.104.103.442.236.75.134.309.247.476.25.372.004-.104-.103-.442-.236-.75-.134-.309-.247-.476-.25-.372zm9.606.747c-.351.448-.603.814-.562.814.118 0 1.327-1.511 1.259-1.573-.033-.031-.347.311-.697.759zm-168.855.405c-.064.425-.082.807-.041.849.042.041.128-.272.192-.698.064-.425.082-.807.04-.848-.041-.042-.128.272-.191.697zm171.973.026c-.353.431-.555.73-.449.665.227-.141 1.282-1.449 1.169-1.449-.043 0-.367.353-.72.784zm-251.627-.194a1.604 1.604 0 0 0-.09.549c.008.153.081.057.161-.214.158-.526.102-.786-.071-.335zm-.333 1.333a1.58 1.58 0 0 0-.09.549c.008.153.08.057.161-.213.157-.526.102-.787-.071-.336zm10.007.527c.156.437.398.713.792.902.217.104.175.033-.112-.19-.252-.196-.458-.458-.458-.582 0-.125-.074-.272-.165-.328-.098-.061-.121.019-.057.198zm-80.695.717c-.063.288-.08.559-.038.601.043.042.126-.162.184-.455.139-.695.004-.83-.146-.146zm317.146.208c-.492.562-.779.959-.694.959.042 0 .317-.3.612-.667.572-.712.63-.916.082-.292zm3.272.208c-.215.229-.354.453-.309.498.045.045.247-.142.45-.416.448-.607.386-.643-.141-.082zm-281.459.032c.16.042.423.042.583 0 .16-.042.029-.076-.292-.076-.32 0-.452.034-.291.076zm46.333 0c.16.042.423.042.583 0 .161-.042.029-.076-.291-.076-.321 0-.452.034-.292.076zm69.667 0c.16.042.423.042.583 0 .16-.042.029-.076-.292-.076s-.452.034-.291.076zm17.887.734c.268.33.521.571.562.537.042-.035-.178-.304-.487-.599l-.563-.537.488.599zm146.355.751c-.165.22-.239.4-.165.4.145 0 .605-.666.518-.75-.03-.028-.188.13-.353.35zm-3.712.359c-.382.512-.398.565-.087.293.361-.316.771-.918.624-.918-.038 0-.28.281-.537.625zM125.883 17c0 .504.032.71.07.458a3.694 3.694 0 0 0 0-.916c-.038-.252-.07-.046-.07.458zm260.594.125c-.529.638-.719.934-.526.819.213-.128.953-1.111.836-1.111-.038 0-.177.132-.31.292zm-214.272.708c0 .321.035.452.077.292.041-.16.041-.423 0-.583-.042-.161-.077-.03-.077.291zm70 0c0 .321.035.452.077.292.041-.16.041-.423 0-.583-.042-.161-.077-.03-.077.291zm23.066.521c-.139.695-.004.83.146.146.063-.288.08-.559.038-.601-.043-.042-.126.162-.184.455zm116.577.21-.403.519.477-.453c.262-.249.443-.483.402-.52-.04-.036-.255.168-.476.454zm-52.084-.022c-.334 1.176-.442 1.668-.382 1.729.04.04.165-.287.278-.725.113-.438.234-.89.268-1.004.034-.115.024-.209-.022-.209s-.11.094-.142.209zm-42.022.594c.071.125-.005.374-.178.583-.295.356-.293.356.102-.009.337-.311.367-.408.178-.583-.183-.17-.202-.168-.102.009zm-196.694.947c0 .459.033.626.072.373a2.968 2.968 0 0 0-.003-.833c-.04-.205-.071.002-.07.46zm163.035-.25c-.063.288-.08.559-.038.601.043.043.126-.162.184-.455.139-.695.004-.829-.146-.146zm129.559.875c-.304.39-.419.603-.256.473.323-.256 1.019-1.181.889-1.181-.044 0-.329.319-.633.708zm-175.975.569c0 .09.206.347.458.569l.458.404-.416-.5a13.849 13.849 0 0 1-.459-.569c-.023-.039-.041.005-.041.096zm76.972.858c-.519.43-.992.892-1.051 1.028-.105.242.158.03 1.489-1.203.925-.857.701-.767-.438.175zm3.884.371c-.216.18-.319.327-.229.327.091 0 .261-.116.379-.258.171-.206.242-.214.351-.041.102.161.138.141.14-.076.003-.372-.15-.361-.641.048zm-58.586 4.584a1.603 1.603 0 0 0-.089.549c.008.153.08.056.161-.214.157-.526.101-.786-.072-.335zm47.582 1.079c-.31.274-.493.498-.406.498.087 0 .374-.225.637-.5.613-.64.496-.638-.231.002zm92.309-.16c-.1.189-.158.417-.128.507.03.091.141-.063.246-.342.219-.58.154-.672-.118-.165zm-140.224.414a1.604 1.604 0 0 0-.09.549c.008.153.081.057.161-.214.158-.526.102-.786-.071-.335zm51.717.189-.404.445.453-.32c.249-.176.455-.377.458-.445.009-.206-.083-.148-.507.32zm-18.802.416c-.01.153-.062.415-.115.583-.091.29-.086.29.095.009.104-.164.156-.426.115-.584-.068-.258-.077-.258-.095-.008zm17.148.931c-.413.341-1.013.874-1.334 1.185-.321.312-.005.104.702-.461 1.119-.894 1.612-1.358 1.433-1.346-.028.001-.389.282-.801.622zm-28.405.803c-.061.244-.079.476-.04.515.039.04.121-.128.183-.372.061-.244.079-.476.04-.516-.039-.039-.122.129-.183.373zm-22.563.926c-.096.378-.113.622-.037.541.155-.166.405-1.229.288-1.229-.042 0-.155.309-.251.688zm-60.851 1.789a10.905 10.905 0 0 1-1.106 1.414c-.321.331-.474.56-.339.508.345-.132 2.296-2.732 2.05-2.732-.047 0-.319.364-.605.81zm108.101-.388c-.257.226-.401.411-.321.411.081 0 .323-.187.539-.417.498-.53.388-.527-.218.006zm-5.255.836c-.489.408-.826.74-.75.738.077-.002.514-.336.973-.743 1.078-.958.928-.954-.223.005zm-42.831-.096c-.215.291-.272.459-.137.407.192-.074.699-.903.552-.903-.027 0-.213.223-.415.496zm9.804-.163c0 .092-.279.485-.621.875-.418.478-.467.573-.15.292.614-.544 1.175-1.333.949-1.333-.098 0-.178.075-.178.166zm37.198.34c-.531.495-.448.625.093.148.252-.222.49-.423.528-.446.038-.023-.004-.041-.093-.041-.09 0-.328.153-.528.339zm-154.541.952-.574.625.625-.574c.582-.535.702-.676.574-.676-.027 0-.309.282-.625.625zm-19.126-.167c1.164.029 3.114.029 4.334 0 1.22-.028.268-.052-2.115-.052-2.384 0-3.382.024-2.219.052zm47.353 0c1.082.029 2.807.029 3.833 0 1.026-.029.141-.053-1.967-.053-2.109 0-2.948.024-1.866.053zm71.824 0c.802.03 2.115.03 2.917 0 .802-.031.146-.056-1.459-.056-1.604 0-2.26.025-1.458.056zm15.225 1.054c-.357.268-.579.488-.493.488.085 0 .415-.222.733-.493.738-.631.602-.628-.24.005zm36.567.505-.917.846.958-.785c.841-.689 1.07-.916.917-.909-.023.001-.454.382-.958.848zm-152.925-.529c-.087.084-.534.345-.992.579-.458.233-.766.427-.683.429.251.007 1.933-.889 1.933-1.03 0-.172-.064-.167-.258.022z" fill="#0C0C0C"/></g><defs><clipPath id="a"><path fill="#fff" d="M0 0h400v37.489H0z"/></clipPath></defs></svg>
