<svg fill="none" height="109" viewBox="0 0 165 109" width="165" xmlns="http://www.w3.org/2000/svg"><path d="M115.9 3.312c5.986-2.956 8.957-2.563 9.022.423.085 3.886-.49 9.037-.899 12.778-2.222 20.291-5.94 36.873-6.223 57.712 9.784-25.375 17.992-43.01 28.554-64.734 3.358-6.911 5.496-5.626 8.252-6.854 10.739-4.787 11.141-1.847 9.738 3.998-5.212 21.689-18.525 89.959-20.565 100.47-.592 3.041-3.886 1.753-4.746.563-3.822-5.293-8.128-5.376-7.644-8.898 2.395-17.526 11.019-61.498 13.267-71.86-11.469 23.54-23.354 52.965-29.456 69.65-1.296 3.542-3.651 3.283-5.12.69-2.064-3.64-6.069-5.5-6.73-9.802-2.097-13.683 2.395-39.76 3.02-56.259-6.24 18.022-16.718 53.013-21.308 68.821-1.898 6.541-8.197 5.473-6.523-.902 6.976-26.53 21.997-73.452 28.503-90.326 1.528-3.964 5.532-3.828 8.858-5.47zM77.863.052c1.9.458 1.745 2.702.584 5.768-3.426 9.045-8.177 20.927-13.609 34.939 3.415-.39 5.268-.523 5.268-.523 4.902-.606 5.815 1.85 4.435 4.463-1.1 2.083-2.424.694-7.012 7.545-2.585 3.86-6.805 4.88-9.149 5.395-5.646 14.975-11.697 31.68-17.577 49.483-.855 2.593-3.355 2.024-4.106.971-2.762-3.863-4.798-3.99-6.939-7.115-.257-.505-.76-1.193-.457-2.434 1.574-6.443 5.753-19.685 12.11-37.118-8.009 1.739-16.673 3.608-20.25 4.44-4.293 11.367-8.48 22.768-12.445 34.032-2.461 6.986-8.866 5.636-6.618-.968 3.58-10.519 7.532-21.444 11.495-32.038-4.437-.475-5.937-3.613-8.417-6.236-.957-1.012-3.045-.87-4.067-2.29C-.729 55.815-.546 54.68 3.7 53.454a425.503 425.503 0 0 1 16.707-4.467c7.175-18.55 13.66-34.461 17.115-42.952 2.665-6.543 9.532-5.934 6.923.52C39.143 19.674 33.707 33.3 28.342 47.119a392.236 392.236 0 0 1 19.955-3.963 1034.169 1034.169 0 0 1 15.439-37.51c.377-.866 1.476-2.09 2.621-2.287C69.966 2.74 75.834-.438 77.863.052zM65.576 84.963a14.414 14.414 0 0 0 1.68-1.228c-.427-1.259-.846-2.52-1.258-3.783a62.504 62.504 0 0 0-1.227 1.625c-2.402 3.304-.98 4.48.805 3.386zM68.772 69.3c2.975-3.364-2.906-4.771-1.552.373.076.29.17.632.277 1.007.435-.45.86-.91 1.275-1.38zm3.095 10.138c2.944-2.555 5.757-.02 2.845 4.301a48.649 48.649 0 0 1-2.108 2.914c.305.88.624 1.755.957 2.625 1.505 3.866-2.448 4.836-3.722 1.633-.111-.28-.227-.579-.347-.89-2.402 2.131-5.18 3.473-8.15 2.549-4.884-1.522-6.127-8.412-1.566-13.72a100.4 100.4 0 0 1 4.357-4.787c-.282-.915-.553-1.834-.811-2.756-.593-2.149-1.127-4.653 1.02-7.205 4.025-4.786 13.365-.538 8.64 6.83-1.137 1.774-2.468 3.45-3.855 5.149.476 1.518.96 3.034 1.453 4.547.42-.407.848-.804 1.287-1.19z" fill="#000"/></svg>
