<svg fill="none" height="88" viewBox="0 0 146 88" width="146" xmlns="http://www.w3.org/2000/svg"><g fill="#000"><path d="M76.587 56.597 57.83 75.354 13.708 31.232l21.32-21.32h45.586l21.338 21.32-9.166 9.167h7.151l9.167-9.167L82.707 4.855H32.933L6.556 31.232 57.83 82.506l25.908-25.909z"/><path d="M66.197 34.643v1.612h-5.675v24.523h5.675v1.611H49.662v-1.611h5.395V36.255h-5.395v-1.612h5.395V31.21c0-11.981 4.974-17.026 11.7-17.026 2.733 0 5.886 1.262 5.886 4.555 0 1.4-1.401 2.312-2.592 2.312-1.892 0-2.873-1.332-2.873-3.223 0-.77.56-.841.56-1.752 0-.35-1.19-.42-1.681-.42-3.363 0-5.535 4.063-5.535 11.07v7.918h5.675zm9.103 3.235a2.534 2.534 0 1 0 0-5.068 2.534 2.534 0 0 0 0 5.068z"/><path d="M73.807 53.975c-.064 1.001-.831 1.747-1.811 1.747-.788 0-1.236-.512-1.385-1.3-.725.896-1.79 1.3-2.877 1.3-1.342 0-2.493-.512-2.493-2.088.064-1.982 2.089-3.09 5.348-3.09V48.52c0-1.002-.788-1.3-1.534-1.3-.468 0-1.981.15-1.981.767 0 .17.64.277.64.98 0 .533-.342.895-.875.895-.575 0-.895-.426-.895-1.022 0-.767.874-2.046 3.41-2.046 2.898 0 2.898 1.236 2.898 2.088v5.071c0 .64 0 .98.447.98.426 0 .64-.596.746-.958zm-3.218-2.983c-1.384.02-3.75.255-3.75 2.215 0 1.045.661 1.684 1.642 1.684.681 0 1.128-.17 1.64-.618.17-.17.469-.405.469-1.3v-1.981zm9.909-3.985v2.386h-.469c-.32-1.236-1.044-2.109-2.323-2.173-1.747-.043-2.002 1.3-2.002 1.555 0 .618.17.938 3.43 1.598 1.641.342 2.216 1.087 2.216 2.43 0 1.832-1.385 2.919-3.068 2.919-.895 0-1.833-.363-2.45-1.044l-.47.767h-.468v-2.813h.49c.404 1.534 1.449 2.664 3.025 2.664.96 0 2.067-.725 2.067-1.833 0-.831-1.171-1.214-2.94-1.662-1.407-.34-2.642-.532-2.642-2.386 0-.895.554-2.621 2.876-2.621.66 0 1.321.255 1.982.788l.384-.575h.362zm3.452-5.753h-1.173v-.49h.448c.789 0 1.62-.043 2.387-.192v8.48h.042c.597-1.342 1.428-2.258 2.984-2.258.767 0 2.535.17 2.535 2.13v6.03h1.15v.49h-3.92v-.49h1.108v-5.753c0-1.555-.49-1.79-1.343-1.79-1.449 0-2.557 1.982-2.557 3.58v3.963h1.15v.49h-3.983v-.49h1.172zm9.652 14.19v-.49h1.428v-7.456h-1.428v-.49h.703c.789 0 1.62-.022 2.387-.213v8.16h1.257v.49h-4.347zm2.238-14.062c.511 0 1.086.468 1.086 1.022 0 .66-.468 1.13-1.086 1.13-.618 0-1.023-.512-1.023-1.13 0-.554.49-1.022 1.023-1.022zm11.847 9.865c0 2.578-1.875 4.475-4.112 4.475s-4.113-1.897-4.113-4.475 1.876-4.453 4.113-4.453 4.112 1.875 4.112 4.453zm-6.286 0c0 1.79.021 4.049 2.174 4.049 2.152 0 2.173-2.259 2.173-4.049 0-1.768-.021-4.027-2.173-4.027-2.153 0-2.174 2.258-2.174 4.027zm8.694-3.75h-1.172v-.49h.447c.405 0 .81 0 1.194-.043.404-.02.809-.085 1.193-.17v2.259h.043c.597-1.343 1.428-2.259 2.983-2.259.767 0 2.535.17 2.535 2.13v6.03h1.151v.49h-3.921v-.49h1.108v-5.753c0-1.555-.49-1.79-1.342-1.79-1.449 0-2.557 1.982-2.557 3.58v3.963h1.15v.49h-3.985v-.49h1.173zm9.247-.49h1.258v-2.62c.554 0 1.086 0 1.619-.086v2.706h1.875v.49h-1.875v6.52c0 .384 0 .96.81.96.553 0 .852-.384 1.193-.789l.341.234c-.405.81-1.449 1.3-2.301 1.3-1.534 0-1.705-.83-1.705-1.854v-6.37h-1.214v-.49zm5.946.49v-.49h3.835v.49h-1.129l2.067 6.115h.042l2.152-6.115h-1.299v-.49h2.897v.49h-1.023l-2.94 8.225h-.724l-2.856-8.225z"/></g></svg>
