<svg width="233" height="110" fill="none" xmlns="http://www.w3.org/2000/svg"><path d="M10.234 12.04V52.24H0V3.766h18.446c8.028 0 14.585 6.496 14.585 14.401 0 6.742-4.719 12.38-11.092 13.85l14.218 20.224H23.96L13.726 36.369V24.786h2.39c3.8 0 6.864-2.819 6.864-6.312 0-3.493-2.88-6.435-6.68-6.435h-6.066zM104.428 52.242V1.438h-9.683v23.96c-2.574-2.512-5.822-3.92-9.56-3.92-7.967 0-14.463 7.047-14.463 15.81 0 8.703 6.496 15.812 14.463 15.812 3.8 0 7.354-1.471 9.56-4.168v3.31h9.683zm-16.486-7.417c-3.922 0-7.108-3.492-7.108-7.782s3.186-7.784 7.108-7.784c3.923 0 7.11 3.493 7.11 7.784-.062 4.29-3.248 7.782-7.11 7.782z" fill="#000"/><path d="M44.737 33.672a5.885 5.885 0 015.883-5.883 5.885 5.885 0 015.884 5.883H44.737zm21.327 5.516c.062-.675.123-1.349.123-2.023.123-10.48-6.74-16.179-15.566-16.179-8.825 0-15.995 7.232-15.995 16.18 0 8.947 7.17 16.178 15.995 16.178 6.741 0 12.012-3.063 14.708-7.844l-7.844-3.616c-.98 2.145-3.31 3.677-6.067 3.677-3.616 0-6.618-2.758-6.618-6.374h21.264zM166.754 22.703v17.404c0 2.941 2.452 5.27 5.515 5.27 3.003 0 5.454-2.329 5.454-5.208V22.703h9.868v19.365c0 6.252-7.293 11.706-15.629 11.706-8.334 0-15.075-5.394-15.075-11.706V22.703h9.867zm35.053-21.265v50.804h-9.682V1.438h9.682zm16.485 0v50.804h-9.682V1.438h9.682zm-84.265 2.328c5.516 0 9.561 1.532 11.889 4.045 2.206 2.39 3.493 5.393 3.493 8.702 0 3.615-1.654 6.925-4.289 9.376 6.496 3.003 8.457 6.925 8.518 12.442 0 7.598-6.618 13.788-14.769 13.91h-21.327V3.767h16.485zm.123 18.937c2.819 0 5.21-2.329 5.21-5.21 0-2.88-2.391-5.024-5.21-5.024h-6.496v31.376h9.254c3.738-.184 6.006-2.696 6.128-6.127 0-3.432-2.574-6.25-6.006-6.25h-6.312v-8.765h3.432z" fill="#000"/><path d="M86.9 85.826c0-13.114 10.603-23.717 23.717-23.717 13.114 0 23.717 10.602 23.717 23.717 0 13.115-10.603 23.717-23.717 23.717-13.114 0-23.717-10.663-23.717-23.717z" fill="#C5C5C5"/><path d="M91.557 71.73c.368.183.736.367 1.164.612 1.779 1.226 2.943 2.267 5.64 4.535.795.797 1.715 2.084 2.389 2.88 1.471 1.839 2.513 3.126 2.696 4.657.429 3.064.858 4.78 2.023 7.906.121.306.612.735.919 1.103.735.919 1.042 2.39 2.39 3.187.735.43.858.49 1.103.674.367.306-.245 1.41-2.145 1.165.981.49.858 1.593-.552 1.654-2.758.123-4.474-1.47-4.841-1.9-.185-.183-.736.552-1.717.92-.98.49-2.328 0-3.37.184-.98.183-2.268.796-3.309.858-1.838.062-2.084-1.226-2.084-2.33v-.49c-.183.675-.857 1.839-.857 1.839-.246.552-.614 1.226-1.287 1.471l-1.962.246c-1.532.674-3.063 1.164-4.658 1.715-.919.184-1.96 0-2.634-.551-.552-.43-.858-.98-1.165-1.532-.306-.122-.735 0-1.104-.122-.306-.062-.49-.306-.674-.49l-1.348-2.268a1.524 1.524 0 010-1.041c.245-.491.797-.736 1.348-.736.981-.062 2.084-.368 3.065 0 .429-.49 1.103-.43 1.716-.552-.245-.367-.613-.551-.92-.858-1.777.429-3.738.122-5.454-.184-1.594-.367-2.942.552-4.535.306l-.49 1.042c-.737.796-.798 2.145-1.9 2.697-.797.183-1.41.735-2.084 1.103-1.226.674-2.88.367-4.229.122-.551-.062-.919 0-1.41.184-.428.306-.918.796-1.409 1.164-.797.306-1.47.98-2.329 1.042-.49 0-.98-.307-1.47-.184-.613.675-.92 1.777-1.9 2.083-.98.307-2.206.062-3.187-.183-.306.122-.49.367-.857.306-.675-.184-1.35-.368-1.962-.735-.245-.246-.306-.551-.367-.797 0-.429.367-.797.55-1.164.063-.429.063-1.042.247-1.472.306-.674.98-1.102 1.654-1.409.062-.49.368-.919.797-1.165.797-.428 1.655-1.41 2.697-.857l1.102.919c.981-.43.736-1.41 1.226-2.207.245-.552.552-1.164 1.165-1.164.429-.062.919.062 1.348 0 .613-.184 1.287-.429 1.716-.92l-.06-.367c-.614-1.164-.798-2.574-.86-3.984-1.102.123-2.267.307-3.432.062-1.715-.246-3.37-1.594-4.044-3.31-.735-1.654-.429-3.983.735-5.392a19.894 19.894 0 013.064-2.942c-.367-.123-.796-.062-1.164-.184-1.593-.245-3.186-1.655-3.554-3.248-.245-1.042 0-2.023.49-2.88.185-.184.369-.368.675-.246.796.306 1.042.735 1.776 1.103l.43.246c2.021.674 4.719.674 5.515 3.186.491 1.961-.735 3.433-2.145 4.536-1.103.796-2.206 1.777-2.758 2.941-.245.858-.123 1.716.613 2.329.736.735 2.023.735 2.942.368 1.716-.736 3.31-1.84 4.841-3.004 1.471-1.102 3.248-1.531 5.148-1.593a5.233 5.233 0 002.267-1.103c1.165-1.103 2.39-2.023 3.861-2.39.674-.123 1.349-.184 2.023-.245.551-.246.919-.919 1.347-1.226 2.023-1.778 4.72-1.716 6.865-3.126 1.226-.919 2.574-1.532 4.167-1.47.735.06 1.41.183 2.022.428l.491.247zm2.023 20.835c-1.348.062-2.206.368-3.126.49.062.86.552 1.594 1.226 2.513.368-1.41 1.532-1.961 1.9-3.003zM128.083 92.874c.613.919.981 1.84 1.532 2.82.551-1.043 1.042-2.023 1.532-2.636-.061-.062-1.654.123-3.064-.184zm1.287 4.535c-.062.183-.184.244-.429.244.183.859-.429 2.453-1.961 2.514-1.043.061-2.758-.982-3.739-1.043-1.042-.06-2.941.735-4.044-.92-1.471 1.779-3.187 2.269-4.657 2.208-.858 0-1.777-.49-.49-1.594-2.82.92-2.82-.98-2.329-1.348.306-.245.674-.429 1.715-1.47 3.923-4.107 2.452-11.216 6.742-15.935 1.654-1.838 3.003-2.88 6.373-5.27 1.164-.796 2.329-1.96 3.432-2.758l.062.122v-.06c.674-.492 1.287-.981 2.022-1.165 1.532-.184 2.942.306 4.106 1.102.613.43 1.103.92 1.595 1.533.367.367.917.367 1.408.551 1.41.245 2.636.797 3.8 1.532.797.49 1.472 1.348 2.452 1.471a8.982 8.982 0 013.248 1.164c1.226.797 2.329 1.778 3.8 2.023 2.942.306 5.393 1.96 7.722 3.616 1.348.797 2.941 1.716 4.597 1.165.49-.185.857-.614.98-1.043.122-1.102-.552-1.96-1.226-2.758-1.41-1.654-3.861-3.063-3.555-5.454.43-1.777 2.391-2.819 3.923-3.309.858-.305 1.899-.184 2.635-.919.368-.245.551-1.103 1.164-.797.491.307.552.92.613 1.471.246 1.717-.122 3.432-1.715 4.414-.735.49-1.532.674-2.391.858 1.287 1.041 2.574 2.328 3.309 3.799.429.859.675 1.594.736 2.574-.061 1.839-1.165 3.432-2.758 4.351-.919.491-1.961.675-3.063.675-.429 0-.797-.123-1.165-.123.183.859.183 2.023 0 3.004-.062.49-.367 1.041-.367 1.655.245.305.612.305.918.305.797 0 1.778-.061 2.207.797.367.797.551 1.716.857 2.513.123.122.185.43.368.368.552-.491 1.103-1.165 1.9-.981.736.49 1.471 1.042 2.206 1.593.184.184.245.43.307.735.612.246 1.409.674 1.594 1.411.121.49.06.98.183 1.409.184.49.675 1.103.306 1.716l-.245.183-2.329.736c-.183 0-.368-.123-.552-.307-1.225-.061-2.696.307-3.676-.551-.429-.368-.736-.797-1.042-1.287-.735.368-1.778.613-2.512.122-1.533-1.163-3.065-2.328-5.149-2.267-.919.184-2.022.429-2.941.062-.858-.614-1.839-.92-2.513-1.84-.98-1.041-.98-2.267-1.348-3.554-1.348.306-2.819.122-4.167.062-1.104-.062-2.146.122-3.187.367a17.717 17.717 0 01-4.045.306l-.674.49c.306.063.613.063.858.308l.246.243c1.102.124 2.39-.06 3.432.186.244.06.49.305.613.55.121.307.121.675-.062.92-.551.735-.858 1.593-1.593 2.206-.184.245-.735-.061-.797.367-.245 1.103-1.286 2.024-2.329 2.268-.429.061-.919 0-1.286-.123-1.287-.428-2.575-.796-3.861-1.164-.429-.122-.796-.551-1.164-.797-.551 0-1.349.184-1.716-.306-.184-.122-.367-.55-.429-.736-.433-.551-.74-1.533-.923-2.39" fill="#F2F2F2"/><path d="M90.945 79.451c.368.918.368 2.145.122 3.125-.06.062-.122.062-.184 0-.184-.858-.368-1.715-.674-2.574-.184-.49-.797-.919-.551-1.471.122-.122.367-.122.551-.061.307.307.492.613.736.981zm9.805 8.579c.675.797 1.165 1.655.92 2.697-.123.183-.062.55-.368.612-.123.062-.245-.061-.245-.183-.061-.552-.061-1.165-.368-1.594-.368-.367-.797-1.103-1.409-1.103-.429.123-.736.614-.98.919 0 .062-.062.062-.123 0-.245-.612.245-1.102.429-1.593.368-.367.306-1.41 1.103-1.103.551.369.674.98 1.041 1.348zm-1.286 7.293c.061.368.061.92-.307 1.164a2.982 2.982 0 01-1.286.123c-.123-.061-.245-.123-.184-.245.184-.552.736-1.165 1.349-1.287.121 0 .366 0 .428.245zM54.727 72.955c1.47.367 3.064.367 4.167 1.531.613.736.674 2.023.184 2.758-.858 1.472-2.573 2.207-3.616 3.494-1.041.858-1.409 2.206-1.103 3.554.368 1.165 1.532 1.961 2.697 2.022 1.838.062 3.187-.857 4.657-1.715 1.471-1.042 2.82-2.39 4.474-2.82 1.103-.368 2.329-.183 3.432-.612 1.164-.245 2.083-1.227 3.003-2.084 1.042-.858 2.267-1.348 3.615-1.286 1.226.183 1.9-.92 2.758-1.656 1.41-1.286 3.248-1.408 4.902-2.144 1.165-.368 2.085-1.226 3.188-1.777 1.041-.43 2.451-.552 3.493-.123.674.306 1.409.614 2.022 1.103l4.964 4.168c.062.183.245.306.368.367 1.41 1.716 2.88 3.37 4.044 5.27.368.675.552 1.348.735 2.084.245 2.82.982 5.27 1.9 7.722.246.368.736.674.981 1.042.797 1.103 1.286 2.512 2.574 3.248l.736.368a.187.187 0 010 .245l-.123.122c-1.532.246-2.696-.674-3.494-1.778-.49-.98-1.164-2.022-2.266-2.451-.062 0-.123.062-.123.062.123.368.49.613.612.919.43.674.797 1.41.981 2.144.245.798 1.103 1.349 1.777 1.778l.98.49c.123.062.184.246.061.368l-.122.062c-1.655.06-3.125-.491-4.289-1.716-.245-.306-.614-.551-1.042-.551-.736.674-1.472 1.287-2.452 1.348-1.041-.184-2.145-.184-3.064.184-.858.306-1.716.674-2.635.674-.429 0-.92-.184-1.103-.613 0-.552-.368-1.165-.061-1.716l.612-.919c0-.122-.061-.245-.183-.245-.246-.062-.675.368-.797-.062.061-.919.98-1.532 1.593-2.145.123-.735.43-1.41.981-2.022 0-.062-.062-.184-.184-.184-.797.122-1.593.306-2.452.306-.675.368-1.532.613-2.329.368-.183-.122-.122-.306-.061-.43.858-1.164 1.164-2.634.92-4.044-.063-.061-.063-.184-.185-.184s-.122.123-.184.184c-.184 1.348-.613 2.39-1.348 3.555-.552.551-1.41.551-2.145.736-.184.06-.368.245-.368.428 0 .49.306.797.49 1.226l1.593 2.942c.062.796-.306 1.593-.49 2.328.061.123.184.061.307 0 .551-.49.919-1.164 1.165-1.9.06-.305-.062-.674-.185-.919l-1.654-3.309c.122-.183.368-.183.551-.245.368 0 .736.184 1.103.306.368.98.797 2.023 1.47 2.88.124.552.308 1.287-.06 1.717a13.747 13.747 0 01-1.225 2.022c-.43.428-1.042.367-1.656.428h-.184c-1.471.797-3.003 1.287-4.596 1.778-.674.306-1.471.061-2.022-.368-.552-.429-.797-1.041-1.165-1.593-.429-.552-1.102-.061-1.593-.367-.429-.675-.858-1.349-1.226-2.084 0-.184 0-.368.184-.49.551-.184 1.165-.184 1.777-.246.552-.062 1.165.062 1.532.429.735.858 1.042 2.022 2.145 2.574.858.061 1.593-.183 2.328-.552.43-.244.92-.612.92-1.164-.062-1.102-.797-1.96-1.717-2.574-.918-.49-1.9-1.164-2.573-2.022-.369-.49-.43-1.041-.613-1.532-.061-.123-.306-.123-.368-.062-.367.307-.061.858-.061 1.226.061.245.184.55.061.736-.551.43-1.286.183-1.961.245-1.348-.062-2.635-.613-4.045-.491-1.348.06-3.186.98-4.167-.367-.49-1.287-.368-2.82-.122-4.106 0-.123-.123-.246-.246-.246-.122-.061-.245 0-.306.123-.368 1.287-.429 2.696-.735 4.044-.49 1.165-1.349 2.39-2.513 3.003-1.042.552-2.267.735-3.554.859-2.329.061-4.473.49-5.944 2.512-.122.184-.306.367-.245.613.06.06.245.122.306.06 1.593-1.776 3.615-2.511 5.945-2.388 2.206 0 4.412-.368 5.821-2.269.368-.428.613-.857.919-1.347.245 0 .429.306.613.43.061.673-.49 1.101-.736 1.654-.306.613-.613 1.348-1.226 1.715-.735.184-1.348.675-2.021 1.042a3.749 3.749 0 01-2.33.246c-.98-.184-2.328-.429-3.31 0-.49.305-.918.858-1.409 1.165-.674.305-1.287.858-2.083.796-.552-.122-1.226-.491-1.716 0-.613.551-.736 1.532-1.532 1.9-.92.49-1.9 0-2.82-.062.123-.919.246-1.777.859-2.451.367-.062.674-.123.98-.368.367-.307.613-.736.858-1.164.797-.491 1.717-.859 2.207-1.716.367-.796.367-1.532.98-2.268l.306-.123 1.655-.122c.675-.306 1.287-.613 1.9-1.103.184-.183.245-.49.184-.796-.306-.797-.551-1.348-.735-2.206-.184-.858-.061-1.717-.184-2.697-.062-.062-.123-.245-.245-.245-1.103.245-2.146.551-3.37.367-1.656-.184-3.371-1.287-3.985-2.941-.55-1.41-.429-3.433.613-4.596.981-1.226 2.206-2.146 3.432-3.188.184-.123.184-.367.245-.551 0-.246-.245-.43-.429-.55-.735-.185-1.593.06-2.328-.247-1.287-.43-2.268-1.655-2.452-3.002a2.38 2.38 0 01.368-1.594c.983.857 1.718 1.593 2.638 1.838zM51.05 100.35v.183c-.306.736-.49 1.594-.735 2.452-.553-.061-1.042-.245-1.472-.43-.122-.121 0-.244 0-.367.552-.491.368-1.102.49-1.777.062-.367.43-.674.797-.858.43.06.675.49.92.797zm2.696-2.575c-.306.614-.735 1.349-1.41 1.716-.244.062-.551.062-.795-.061-.123-.122-.368-.246-.368-.49.06-.246-.062-.552.184-.675.49-.306.98-.613 1.47-1.042.123-.061.368-.122.43 0 .244.185.428.308.49.552zm30.703-.244c.061.244.43.551.184.796-.49.368-1.042.613-1.716.552-.49-.368-.429-1.043-.858-1.533-.123-.367-.674-.367-.551-.734l.184-.123c.674 0 1.348 0 2.022-.122.674-.063.49.734.735 1.164M123.18 87.54c.368.491.674.981.919 1.594.061.122 0 .245-.061.368-.061.122-.184.245-.368.122-.429-.122-.367-.797-.919-.735-.367 0-.613.306-.919.49-.551.49-1.286.981-1.409 1.716-.123.245-.063.674-.307.797-.122.062-.306-.062-.306-.184-.061-.98.246-1.9.919-2.574.674-.551 1.164-1.348 1.716-2.023.367-.06.612.184.735.43zm.245 8.151c.123.246.368.552.185.858-.246.184-.675.062-.981.062-.368-.185-.491-.674-.491-1.103 0-.123 0-.184.123-.306.429-.001.858.121 1.164.489zm9.193-18.753c.184.246 0 .49-.122.675-.858.796-1.9 1.654-2.514 2.635a3.366 3.366 0 00-.55 1.042c0 .061-.062.061-.123.061-.184-.49.062-1.042.184-1.531.429-1.165 1.409-2.268 2.452-3.064.121-.062.55-.124.673.182zm3.492-3.922c.675.429.919 1.348 1.716 1.532 1.348.306 2.697.613 3.923 1.226.858.43 1.654 1.042 2.452 1.716.734.367 1.654.367 2.451.612 1.164.306 2.084 1.164 3.125 1.839 1.349 1.042 3.248.92 4.781 1.593 2.451.797 4.412 2.697 6.68 3.8 1.163.613 2.942.858 4.105.184.798-.551 1.287-1.286 1.104-2.328-.43-2.513-3.188-3.8-4.474-5.884-.246-.49-.43-1.165-.306-1.715.49-1.226 1.777-1.9 2.88-2.329.858-.429 1.961-.306 2.758-.797.306-.184.551-.43.735-.612.183 0 .183.183.245.305.245 1.471 0 3.004-1.287 3.861-.49.367-1.103.49-1.655.613-.49.184-1.471-.184-1.41.674.123.43.49.675.797.98 1.717 1.41 3.31 3.25 3.493 5.455.062 1.716-1.102 3.187-2.574 3.922-1.102.43-2.451.613-3.616.306-.306-.06-.796-.368-1.042.061-.061.491.246.859.246 1.287.121.798.121 1.839-.122 2.636-.123.613-.735 1.348-.185 1.961.553.858 1.656.612 2.574.735.491.062.676.613.797.98.184.49.184 1.043.368 1.41 0 .92 1.042 1.287 1.532 1.9.613.674 1.164 1.838 2.206 1.777.368.735.551 1.41.675 2.268l-.123.123c-.858 0-2.022.245-2.635-.368-.736-.491-.981-1.839-2.084-1.472-.49.367-1.164.491-1.716.246-.55-.184-.919-.675-1.409-.981-1.471-1.103-3.432-1.654-5.332-1.225-1.102.306-1.96-.49-2.819-.981-1.165-.491-1.471-1.715-1.716-2.758l-.184-1.287c0-.122.123-.245.245-.305h.184c.675 1.531 1.962 3.248 3.616 3.799 1.532.613 2.943-.184 4.597.122 1.532.184 2.757 1.165 3.922 2.084.122 0 .184-.062.246-.184v-.122c-1.411-1.778-3.371-2.697-5.639-2.513-1.899.368-3.738-.245-4.841-1.839-.613-.918-1.042-1.899-1.225-2.94-.184-1.227-.43-2.575-.859-3.678-.121-.062-.245-.184-.367-.122l-.122.184c.183 1.164.551 2.573.122 3.8-.306.98-1.286 1.348-2.206 1.41-.92.06-1.777-.123-2.758-.123-2.207-.062-4.167.796-6.434.612.183-.55.55-1.103.367-1.715-.062-.123-.245-.123-.367-.123-.431.246-.369.797-.614 1.165-.49.796-1.41 1.531-2.328 1.715-.675.491-1.287 1.165-1.839 1.778-.184.184-.184.551-.122.797.429 1.102 1.715 1.226 2.696 1.532.49.061.918-.123 1.164-.552.429-.674.491-1.777 1.472-1.9h2.144c.184.062.306.184.429.368l-.062.306c-.49.552-.673 1.348-1.286 1.716-.367.123-.797 0-1.042.306-.122.736-.306 1.532-1.043 1.9-.551.49-1.346.245-1.96.061-1.164-.429-2.329-.674-3.493-1.042-.49-.122-.675-.735-1.226-.858-.49-.123-1.042.246-1.471-.184a6.415 6.415 0 01-.49-1.532 4.043 4.043 0 01-.368-1.226c-.062-.367 0-.612.122-.92l1.593-2.878c.123-.185.246-.368.43-.43.367.062.796.245 1.164.43l-.061.182-1.655 2.514c-.368.796 0 1.715.367 2.39.062.061.122.184.184.122-.062-.49-.122-.98 0-1.532.123-.49.429-.919.674-1.348l1.287-1.9c.123-.306.123-.796-.122-1.103-.552-.55-1.348-.735-1.839-1.47-1.042-1.41-1.165-3.064-1.286-4.842 0-.122-.122-.305-.307-.367-.122-.062-.244.122-.305.184-.307 1.164-.123 2.573.183 3.615.184.797.551 1.594.919 2.33.062.121-.062.305-.183.367-.858.061-1.717 0-2.513-.122-1.103-.184-1.9-1.043-2.82-1.716-.122-.062-.183.06-.245.122.245 1.226 1.594 1.96 2.022 3.064.245.919 1.165 1.593 1.349 2.574 0 .122-.122.306-.245.368-.306.061-.613-.123-.919.06-.062.552.306 1.103.06 1.594-.305.49-.734 1.043-1.286 1.043-1.103-.368-2.206-.858-3.309-1.165-.796-.061-1.593.06-2.329.122-.735-.122-1.225-.796-1.777-1.164-.184-.061-.367-.061-.49.062-1.226 1.225-2.574 2.573-4.413 2.512-.122 0-.184-.123-.184-.245v-.122c.797-.736 1.777-1.472 2.145-2.513.245-.858.98-1.472 1.286-2.268.062-.121-.061-.183-.182-.245l-.185.123c-.919.918-1.593 1.96-2.267 2.94-.674.676-1.655 1.105-2.697.859-.122-.06-.122-.245-.061-.367 3.8-2.33 4.228-6.496 5.271-10.296.735-2.513 1.286-5.086 3.247-7.11 2.942-3.247 6.619-5.147 9.868-7.966.49-.43.98-.858 1.592-.858 1.593-.124 2.819.489 3.921 1.408zm34.995 27.088c.305.429.183 1.103.305 1.593.062.368.551.675.306 1.042l-1.348.429c-.245 0-.123-.306-.245-.429-.122-.797-.307-1.348-.552-2.083-.061-.429.368-.735.674-.98.307-.124.552.244.86.428zm-3.126-2.758c.49.429 1.164.735 1.531 1.286.061.246-.122.491-.245.676a1.02 1.02 0 01-.736.305c-.306 0-.55-.184-.735-.43-.306-.49-.735-.918-.858-1.409.185-.305.614-.796 1.043-.428zm-29.539-.49c-.062.613-.246 1.164-.491 1.715-.183.368-.735.245-1.102.184-.368-.123-.981-.184-1.043-.735-.061-.49.184-.98.43-1.348.551-.061 1.226.06 1.777-.061.244 0 .429.06.429.245M228.404 1.131c1.103 0 2.024.368 2.758 1.164a3.897 3.897 0 011.165 2.758c0 1.103-.367 2.023-1.165 2.758-.734.797-1.716 1.165-2.758 1.165-1.102 0-2.021-.368-2.819-1.165a3.903 3.903 0 01-1.164-2.758c0-1.103.368-2.022 1.164-2.758.797-.735 1.717-1.164 2.819-1.164zM233 5.053c0-1.226-.429-2.328-1.348-3.248-.919-.858-1.961-1.348-3.248-1.348-1.288 0-2.329.429-3.248 1.348-.919.92-1.348 1.961-1.348 3.248 0 1.287.429 2.328 1.348 3.248.919.92 1.96 1.348 3.248 1.348 1.287 0 2.329-.428 3.248-1.348A4.486 4.486 0 00233 5.053zm-3.37-.981c0 .368-.184.674-.552.797-.183.06-.49.123-.857.123h-.797v-1.84h.735c.49 0 .858.062 1.103.184.245.185.368.369.368.736zm-3.064-1.531v5.025h.858V5.604h.674c.491 0 .797.061.981.185.306.183.49.551.49 1.165v.612h.859l-.061-.06c0-.062-.062-.123-.062-.246v-.736c0-.245-.123-.49-.245-.797-.185-.245-.491-.429-.859-.49.306-.062.552-.123.735-.245.306-.184.491-.552.491-.981 0-.613-.246-1.042-.797-1.286-.306-.123-.735-.185-1.409-.185h-1.655z" fill="#000"/></svg>