<svg fill="none" height="17" viewBox="0 0 176 17" width="176" xmlns="http://www.w3.org/2000/svg"><clipPath id="a"><path d="M0 .576h175.7v16.3H0z"/></clipPath><g clip-path="url(#a)" clip-rule="evenodd" fill="#000" fill-rule="evenodd"><path d="M174.6 12.676c-.9-2.9-2.8-3.8-2.8-3.8 1.9-.5 3-2.2 3-3.8 0-2.2-1.5-4.1-5-4.1h-10.2v15.5h2.5v-6.8h6.3c2.1 0 2.9 1.4 3.7 3.9l.9 2.8h2.7c-1.1-3.7 0 .1-1.1-3.7zm-5.4-4.9h-7.1v-4.8h7.1c2 0 3 .9 3 2.4.1 1-.6 2.4-3 2.4zm-35.7 8.7h2.5V.976h-2.5zm-5.7-2.4-9.9-13.1h-3.7v15.5h2.6v-13.1l9.8 13.1h3.7V.976h-2.5zm20-13.5c-6.9 0-9.5 4.2-9.5 8.1 0 4 2.6 8.2 9.5 8.2 4.5 0 7.2-1.8 8.5-4.3h-2.9c-1.2 1.5-3.3 2.2-5.6 2.2-3.9 0-7-2-7-6.2 0-4.1 3.1-6.1 7-6.1 3.5 0 6.4 1.7 6.9 5.1h-11l.3 2h13.2c0-.3.1-.7.1-1 0-3.8-2.6-8-9.5-8zm-71.1 7.2H63.1l.3 2H74c-.4 3.5-3.3 5.1-6.8 5.1-4 0-7-2-7-6.2 0-4.1 3-6.1 7-6.1 2.3 0 4.3.7 5.6 2.2h2.9c-1.3-2.4-4-4.2-8.5-4.2-6.9 0-9.5 4.2-9.5 8.1 0 4 2.6 8.2 9.5 8.2 6.8 0 9.4-4.2 9.4-8.2.1-.3.1-.6.1-.9zm7-6.8-7.7 15.5h2.7l3.2-6.8h6.8l3.3 6.8h2.7L87 .976zm-.8 6.8 2.4-5.2 2.4 5.1h-4.8zm25.4 1.1c1.8-.5 3-2.2 3-3.8 0-2.2-1.6-4.1-5-4.1H96v15.5h2.5v-6.8h6.3c2.2 0 2.9 1.4 3.7 3.9l.9 2.8h2.7l-1.2-3.8c-.8-2.8-2.6-3.7-2.6-3.7zm-2.7-1.1h-7.1v-4.8h7.1c2.1 0 3.1.9 3.1 2.4.1 1-.6 2.4-3.1 2.4zm-59 9c4.4 0 8-3.6 8-8s-3.6-8-8-8-8 3.6-8 8 3.6 8 8 8zm-19.2 0c4.4 0 8-3.6 8-8s-3.6-8-8-8-8 3.6-8 8c.1 4.4 3.6 8 8 8zm-19.4 0c4.4 0 8-3.6 8-8s-3.6-8-8-8-8 3.6-8 8 3.6 8 8 8z"/></g></svg>
